<svg width="73" height="74" viewBox="0 0 73 74" fill="none" xmlns="http://www.w3.org/2000/svg">
<path d="M45.041 16.6181L44.2234 16.1614C44.2379 15.9776 44.2451 15.795 44.2451 15.6134C44.2451 15.4318 44.2379 15.2491 44.2234 15.0653L45.0399 14.6098C45.2614 14.4861 45.4354 14.2922 45.5344 14.0586C45.6333 13.8249 45.6516 13.565 45.5863 13.3199C45.1541 11.7074 44.2849 10.2456 43.0744 9.096C42.898 8.9282 42.6725 8.82126 42.4309 8.7908C42.1893 8.76034 41.9443 8.80795 41.7317 8.92669L40.9168 9.43462C40.575 9.20467 40.2158 9.0017 39.8425 8.82755V7.92196C39.8426 7.6707 39.7596 7.42645 39.6065 7.22721C39.4534 7.02798 39.2388 6.88492 38.9959 6.8203C38.1418 6.59906 37.2628 6.4879 36.3805 6.48952C35.5773 6.50221 34.7788 6.61484 34.0034 6.82479C33.761 6.88986 33.5467 7.03307 33.3939 7.23222C33.241 7.43138 33.1581 7.67538 33.158 7.92643V8.82753C32.8004 8.99119 32.4582 9.18653 32.1354 9.41121L31.2728 8.92892C31.06 8.81095 30.8151 8.76377 30.5737 8.79421C30.3323 8.82465 30.1068 8.93113 29.93 9.09823C28.7188 10.2472 27.8481 11.708 27.4137 13.3199C27.3482 13.565 27.3664 13.825 27.4654 14.0586C27.5644 14.2923 27.7384 14.4862 27.9601 14.6098L28.7771 15.0665C28.7626 15.2502 28.7554 15.4318 28.7554 15.6134C28.7554 15.7949 28.7627 15.9765 28.7771 16.1603L27.9601 16.617C27.7384 16.7405 27.5642 16.9344 27.4652 17.1681C27.3663 17.4017 27.3481 17.6617 27.4137 17.9069C27.846 19.5193 28.7152 20.981 29.9255 22.1308C30.1021 22.2984 30.3276 22.4052 30.5692 22.4356C30.8107 22.4661 31.0557 22.4186 31.2683 22.3001L32.0837 21.7921C32.4256 22.022 32.7848 22.2249 33.158 22.3992V23.3048C33.158 23.5561 33.2409 23.8003 33.394 23.9995C33.5471 24.1988 33.7618 24.3418 34.0046 24.4064C34.8192 24.6257 35.6589 24.7372 36.5025 24.7384C36.5415 24.7384 36.581 24.7372 36.62 24.7372C37.4232 24.7245 38.2217 24.6119 38.997 24.4019C39.2395 24.3369 39.4538 24.1937 39.6066 23.9945C39.7594 23.7954 39.8424 23.5514 39.8425 23.3003V22.3992C40.2001 22.2355 40.5423 22.0402 40.865 21.8155L41.7278 22.2978C41.9406 22.4158 42.1854 22.463 42.4268 22.4326C42.6682 22.4021 42.8937 22.2956 43.0705 22.1285C44.2817 20.9805 45.1522 19.5204 45.5863 17.9091C45.6519 17.6639 45.634 17.4039 45.5352 17.17C45.4365 16.9362 45.2626 16.742 45.041 16.6181ZM41.8687 14.6621C41.9956 15.2899 41.9956 15.9368 41.8687 16.5647C41.8238 16.8 41.8542 17.0435 41.9555 17.2606C42.0567 17.4777 42.2237 17.6574 42.4328 17.7744L43.1012 18.1475C42.8424 18.7704 42.4922 19.3512 42.0619 19.8707L41.9767 19.8228C41.6171 19.6217 41.2094 19.5227 40.7977 19.5364C40.3859 19.5502 39.9857 19.6762 39.6403 19.9008C39.3832 20.075 39.1115 20.2267 38.8283 20.3541C38.4489 20.5282 38.1277 20.8079 37.903 21.1597C37.6783 21.5115 37.5596 21.9205 37.5612 22.338V22.3758C37.2403 22.4249 36.9163 22.4517 36.5916 22.456C36.2061 22.4577 35.821 22.4317 35.4393 22.378V22.338C35.4408 21.9209 35.3224 21.5122 35.098 21.1606C34.8736 20.809 34.5528 20.5295 34.1739 20.3552C33.8899 20.2271 33.6173 20.0751 33.3591 19.9008C33.014 19.6753 32.6136 19.5488 32.2016 19.5353C31.7896 19.5217 31.3818 19.6216 31.0227 19.8239L30.9347 19.873C30.5054 19.3525 30.156 18.771 29.8982 18.1475L30.5666 17.7744C30.7756 17.6577 30.9426 17.4781 31.044 17.2612C31.1453 17.0443 31.1759 16.801 31.1313 16.5658C31.0051 15.9372 31.0051 15.2897 31.1313 14.661C31.1759 14.4258 31.1454 14.1825 31.044 13.9656C30.9426 13.7487 30.7756 13.5692 30.5666 13.4525L29.8993 13.0793C30.1581 12.4564 30.5083 11.8756 30.9386 11.3561L31.0238 11.404C31.3832 11.6056 31.791 11.7049 32.2029 11.6912C32.6147 11.6775 33.015 11.5512 33.3602 11.326C33.6176 11.1517 33.8895 10.9997 34.1728 10.8716C34.552 10.6976 34.8731 10.4181 35.0976 10.0665C35.3222 9.71488 35.4408 9.30603 35.4392 8.88882V8.85096C35.7602 8.80187 36.0842 8.77507 36.4089 8.77076C36.7944 8.76747 37.1796 8.79354 37.5612 8.84873V8.88882C37.5595 9.30592 37.6779 9.71469 37.9023 10.0663C38.1267 10.4179 38.4476 10.6974 38.8266 10.8716C39.1106 10.9997 39.3832 11.1517 39.6414 11.326C39.9867 11.551 40.387 11.6771 40.7989 11.6907C41.2108 11.7042 41.6185 11.6047 41.9778 11.4029L42.0652 11.3538C42.4945 11.8743 42.8439 12.4558 43.1017 13.0793L42.4334 13.4524C42.2241 13.5692 42.057 13.7489 41.9556 13.966C41.8542 14.1832 41.8238 14.4267 41.8687 14.6621Z" fill="#7E86E7"/>
<path d="M36.5 11.6211C35.7104 11.6211 34.9386 11.8552 34.2821 12.2939C33.6255 12.7326 33.1139 13.3561 32.8117 14.0855C32.5095 14.815 32.4305 15.6177 32.5845 16.3921C32.7386 17.1665 33.1188 17.8779 33.6771 18.4362C34.2354 18.9945 34.9468 19.3747 35.7212 19.5288C36.4956 19.6828 37.2983 19.6037 38.0277 19.3016C38.7572 18.9994 39.3807 18.4877 39.8194 17.8312C40.2581 17.1747 40.4922 16.4029 40.4922 15.6133C40.4909 14.5549 40.0699 13.5402 39.3215 12.7918C38.5731 12.0434 37.5584 11.6224 36.5 11.6211ZM36.5 17.3242C36.1616 17.3242 35.8308 17.2239 35.5495 17.0359C35.2681 16.8479 35.0488 16.5807 34.9193 16.268C34.7898 15.9554 34.7559 15.6114 34.8219 15.2795C34.888 14.9476 35.0509 14.6427 35.2902 14.4035C35.5295 14.1642 35.8343 14.0012 36.1662 13.9352C36.4981 13.8692 36.8421 13.9031 37.1547 14.0326C37.4674 14.1621 37.7346 14.3814 37.9226 14.6627C38.1106 14.9441 38.2109 15.2749 38.2109 15.6133C38.2104 16.0669 38.03 16.5018 37.7093 16.8225C37.3885 17.1433 36.9536 17.3237 36.5 17.3242Z" fill="#F1AA2D"/>
<path d="M69.5781 58.6719H67.2969V41.5625C67.2969 41.4127 67.2674 41.2644 67.2101 41.126C67.1528 40.9875 67.0688 40.8618 66.9629 40.7559C66.857 40.6499 66.7312 40.5659 66.5928 40.5086C66.4544 40.4513 66.3061 40.4218 66.1562 40.4219H61.5938V38.1406C61.5931 37.5358 61.3525 36.956 60.9248 36.5283C60.4972 36.1006 59.9173 35.8601 59.3125 35.8594H57.0312V15.3281C57.0313 15.1783 57.0018 15.03 56.9445 14.8916C56.8872 14.7532 56.8032 14.6274 56.6973 14.5215C56.5913 14.4156 56.4656 14.3316 56.3272 14.2742C56.1888 14.2169 56.0404 14.1875 55.8906 14.1875H50.1875V3.92188C50.1868 3.31706 49.9462 2.73722 49.5186 2.30955C49.0909 1.88188 48.5111 1.64132 47.9062 1.64062H25.0938C24.4889 1.64132 23.9091 1.88188 23.4814 2.30955C23.0538 2.73722 22.8132 3.31706 22.8125 3.92188V14.1875H17.1094C16.9596 14.1875 16.8112 14.2169 16.6728 14.2742C16.5344 14.3316 16.4087 14.4156 16.3027 14.5215C16.1968 14.6274 16.1128 14.7532 16.0555 14.8916C15.9982 15.03 15.9687 15.1783 15.9688 15.3281V35.8594H13.6875C13.0827 35.8601 12.5028 36.1006 12.0752 36.5283C11.6475 36.956 11.4069 37.5358 11.4062 38.1406V40.4219H6.84375C6.69395 40.4218 6.54561 40.4513 6.40721 40.5086C6.2688 40.5659 6.14304 40.6499 6.03712 40.7559C5.93119 40.8618 5.84718 40.9875 5.78987 41.126C5.73256 41.2644 5.70309 41.4127 5.70312 41.5625V58.6719H3.42188C2.81706 58.6726 2.23722 58.9131 1.80955 59.3408C1.38188 59.7685 1.14132 60.3483 1.14062 60.9531V67.7969C1.14132 68.4017 1.38188 68.9815 1.80955 69.4092C2.23722 69.8369 2.81706 70.0774 3.42188 70.0781H10.2656C10.8704 70.0774 11.4503 69.8369 11.8779 69.4092C12.3056 68.9815 12.5462 68.4017 12.5469 67.7969V65.5156H28.5156V70.0781C28.5163 70.6829 28.7569 71.2628 29.1846 71.6904C29.6122 72.1181 30.1921 72.3587 30.7969 72.3594H42.2031C42.8079 72.3587 43.3878 72.1181 43.8154 71.6904C44.2431 71.2628 44.4837 70.6829 44.4844 70.0781V65.5156H60.4531V67.7969C60.4538 68.4017 60.6944 68.9815 61.1221 69.4092C61.5497 69.8369 62.1296 70.0774 62.7344 70.0781H69.5781C70.1829 70.0774 70.7628 69.8369 71.1904 69.4092C71.6181 68.9815 71.8587 68.4017 71.8594 67.7969V60.9531C71.8587 60.3483 71.6181 59.7685 71.1904 59.3408C70.7628 58.9131 70.1829 58.6726 69.5781 58.6719ZM59.3125 38.1406L59.3142 44.9844H52.4688V38.1406H59.3125ZM25.0938 3.92188H47.9062L47.9079 26.7344H25.0938V3.92188ZM18.25 16.4688H22.8125V26.7344C22.8132 27.3392 23.0538 27.919 23.4814 28.3467C23.9091 28.7744 24.4889 29.0149 25.0938 29.0156H47.9062C48.5111 29.0149 49.0909 28.7744 49.5186 28.3467C49.9462 27.919 50.1868 27.3392 50.1875 26.7344V16.4688H54.75V35.8594H52.4688C51.8639 35.8601 51.2841 36.1006 50.8564 36.5283C50.4288 36.956 50.1882 37.5358 50.1875 38.1406V40.4219H22.8125V38.1406C22.8118 37.5358 22.5712 36.956 22.1436 36.5283C21.7159 36.1006 21.1361 35.8601 20.5312 35.8594H18.25V16.4688ZM13.6875 38.1406H20.5312L20.5329 44.9844H13.6875V38.1406ZM3.42188 67.7969V60.9531H10.2656L10.2673 67.7969H3.42188ZM28.5156 58.6719V63.2344H12.5469V60.9531C12.5462 60.3483 12.3056 59.7685 11.8779 59.3408C11.4503 58.9131 10.8704 58.6726 10.2656 58.6719H7.98438V42.7031H11.4062V44.9844C11.4069 45.5892 11.6475 46.169 12.0752 46.5967C12.5028 47.0244 13.0827 47.2649 13.6875 47.2656H20.5312C21.1361 47.2649 21.7159 47.0244 22.1436 46.5967C22.5712 46.169 22.8118 45.5892 22.8125 44.9844V42.7031H35.3594V56.3906H30.7969C30.1921 56.3913 29.6122 56.6319 29.1846 57.0596C28.7569 57.4872 28.5163 58.0671 28.5156 58.6719ZM30.7969 70.0781V58.6719H42.2031L42.2048 70.0781H30.7969ZM60.4531 60.9531V63.2344H44.4844V58.6719C44.4837 58.0671 44.2431 57.4872 43.8154 57.0596C43.3878 56.6319 42.8079 56.3913 42.2031 56.3906H37.6406V42.7031H50.1875V44.9844C50.1882 45.5892 50.4288 46.169 50.8564 46.5967C51.2841 47.0244 51.8639 47.2649 52.4688 47.2656H59.3125C59.9173 47.2649 60.4972 47.0244 60.9248 46.5967C61.3525 46.169 61.5931 45.5892 61.5938 44.9844V42.7031H65.0156V58.6719H62.7344C62.1296 58.6726 61.5497 58.9131 61.1221 59.3408C60.6944 59.7685 60.4538 60.3483 60.4531 60.9531ZM62.7344 67.7969V60.9531H69.5781L69.5798 67.7969H62.7344Z" fill="#7E86E7"/>
</svg>
